# xmcd
#
# Track frame offsets:
#	150
#	12450
#	24312
#	36030
#	48942
#	62282
#	75235
#	89225
#	100160
#	114180
#	125595
#	139710
#	151082
#	162302
#
# Disc length: 2320 seconds
#
# Revision: 1
# Processed by: cddbd v1.5.1PL0 Copyright (c) Steve Scherf et al.
# Submitted via: EasyCDDAExtractor 6.5.0.3
#
DISCID=a0090e0e
DTITLE=Eddie Fisher - Greatest Hits
DYEAR=2001
DGENRE=Acapella
TTITLE0=Thinking of You
TTITLE1=Anytime
TTITLE2=Tell Me Why
TTITLE3=I'm Yours
TTITLE4=Wish You Were Here
TTITLE5=Maybe (with Perry Como) 
TTITLE6=Lady Of Spain
TTITLE7=Downhearted
TTITLE8=I'm Walking Behind You (with Sally Sweetland)
TTITLE9=Many Times
TTITLE10=Oh! My Pa-Pa (O Mein Papa)
TTITLE11=I Need You Now
TTITLE12=Count Your Blessings (Instead of Sheep)
TTITLE13=Heart
EXTD=
EXTT0=
EXTT1=
EXTT2=
EXTT3=
EXTT4=
EXTT5=
EXTT6=
EXTT7=
EXTT8=
EXTT9=
EXTT10=
EXTT11=
EXTT12=
EXTT13=
PLAYORDER=
